# AST/ASF file generated using VICON BodyLanguage
# -----------------------------------------------
:version 1.10
:name VICON
:units
  mass 1.0
  length 0.45
  angle deg
:documentation
   .ast/.asf automatically generated from VICON data using
   VICON BodyBuilder and BodyLanguage model FoxedUp or BRILLIANT.MOD
:root
   order TX TY TZ RX RY RZ
   axis XYZ
   position 0 0 0  
   orientation 0 0 0 
:bonedata
  begin
     id 1 
     name lhipjoint
     direction 0.645893 -0.654526 0.392961 
     length 2.38111 
     axis 0 0 0  XYZ
  end
  begin
     id 2 
     name lfemur
     direction 0.34202 -0.939693 0  
     length 6.6822  
     axis 0 0 20  XYZ
    dof rx ry rz
    limits (-160.0 20.0)
           (-70.0 70.0)
           (-60.0 70.0)
  end
  begin
     id 3 
     name ltibia
     direction 0.34202 -0.939693 0   
     length 6.93904   
     axis 0 0 20   XYZ
    dof rx
    limits (-10.0 170.0)
  end
  begin
     id 4 
     name lfoot
     direction 0.0694967 -0.190941 0.979138   
     length 2.13616   
     axis -90 7.62852e-016 20   XYZ
    dof rx rz
    limits (-45.0 90.0)
           (-70.0 20.0)
  end
  begin
     id 5 
     name ltoes
     direction 1.535e-011 -4.2202e-011 1   
     length 1.07536   
     axis -90 7.62852e-016 20   XYZ
    dof rx
    limits (-90.0 20.0)
  end
  begin
     id 6 
     name rhipjoint
     direction -0.700219 -0.612087 0.367481   
     length 2.54621  
     axis 0 0 0  XYZ 
  end
  begin
     id 7 
     name rfemur
     direction -0.34202 -0.939693 0   
     length 6.55353   
     axis 0 0 -20   XYZ
    dof rx ry rz
    limits (-160.0 20.0)
           (-70.0 70.0)
           (-70.0 60.0)
  end
  begin
     id 8 
     name rtibia
     direction -0.34202 -0.939693 0   
     length 6.8736   
     axis 0 0 -20   XYZ
    dof rx
    limits (-10.0 170.0)
 end
 begin
     id 9 
     name rfoot
     direction -0.0679995 -0.186827 0.980037   
     length 2.1218  
     axis -90 -7.62852e-016 -20   XYZ
    dof rx rz
    limits (-45.0 90.0)
           (-20.0 70.0)
  end
  begin
     id 10 
     name rtoes
     direction -1.53589e-011 -4.21772e-011 1   
     length 1.06864   
     axis -90 -7.62852e-016 -20   XYZ
    dof rx
    limits (-90.0 20.0)
  end
  begin
     id 11 
     name lowerback
     direction -0.0416607 0.996347 -0.0745409   
     length 2.12205   
     axis 0 0 0   XYZ
    dof rx ry rz
    limits (-20.0 45.0)
           (-30.0 30.0)
           (-30.0 30.0)
  end
  begin
     id 12 
     name upperback
     direction -0.000153993 0.999276 -0.0380568   
     length 2.12759   
     axis 0 0 0   XYZ
    dof rx ry rz
    limits (-20.0 45.0)
           (-30.0 30.0)
           (-30.0 30.0)
  end
  begin
     id 13 
     name thorax
     direction 0.0187671 0.999821 -0.00241421   
     length 2.13704   
     axis 0 0 0   XYZ
    dof rx ry rz
    limits (-20.0 45.0)
           (-30.0 30.0)
           (-30.0 30.0)
  end
  begin
     id 14 
     name lowerneck
     direction 0.0268157 0.964865 0.261374   
     length 1.65253   
     axis 0 0 0   XYZ
    dof rx ry rz
    limits (-20.0 45.0)
           (-30.0 30.0)
           (-30.0 30.0)
  end
  begin
     id 15 
     name upperneck
     direction 0.00263774 0.939908 -0.341418   
     length 1.72375   
     axis 0 0 0   XYZ
    dof rx ry rz
    limits (-20.0 45.0)
           (-30.0 30.0)
           (-30.0 30.0)
  end
  begin
     id 16
     name head
     direction -0.00526001 0.989001 -0.147818  
     length 1.74878  
     axis 0 0 0   XYZ
    dof rx ry rz
    limits (-20.0 45.0)
           (-30.0 30.0)
           (-30.0 30.0)
  end
  begin
     id 17 
     name lclavicle
     direction 0.881214 0.461162 -0.103884  
     length 3.25108  
     axis 0 0 0   XYZ
    dof ry rz
    limits (-20.0 10.0)
           (0.0 20.0)
  end
  begin
     id 18 
     name lhumerus
     direction 1 -4.4899e-011 3.38092e-027   
     length 4.87408   
     axis 180 -30 -90   XYZ
    dof rx ry rz
    limits (-60.0 90.0)
           (-90.0 90.0)
           (-90.0 90.0)
  end
  begin
     id 19
     name lradius
     direction 1 -4.48931e-011 9.96288e-027   
     length 2.76729   
     axis 180 -30 -90   XYZ
    dof rx
    limits (-10.0 170.0)
  end
  begin
     id 20
     name lwrist
     direction 1 -4.4896e-011 1.50617e-026   
     length 1.38364   
     axis -9.31234e-015 90 90   XYZ
    dof ry
    limits (-180.0 0.0)
 end
  begin
     id 21 
     name lhand
     direction 1 -4.49038e-011 3.01286e-026   
     length 0.98922   
     axis -1.92217e-014 90 90   XYZ
    dof rx rz
    limits (-90.0 90.0)
           (-45.0 45.0)
  end
  begin
     id 22 
     name lfingers
     direction 1 -4.49051e-011 6.02588e-026   
     length 0.797535   
     axis -3.84436e-014 90 90   XYZ
    dof rx
    limits (0.0 90.0)
  end
  begin
     id 23
     name lthumb
     direction 0.707107 -6.34901e-011 0.707107   
     length 1.14511   
     axis -90 45 2.19363e-014   XYZ
    dof rx rz
    limits (-45.0 45.0)
           (-45.0 45.0)
  end
  begin
     id 24 
     name rclavicle
     direction -0.893894 0.441652 -0.0767889   
     length 3.29361  
     axis 0 0 0   XYZ 
    dof ry rz
    limits (-10.0 20.0)
           (-20.0 0.0)
  end
  begin
     id 25 
     name rhumerus
     direction -1 -4.48945e-011 8.0491e-028  
     length 4.71404   
     axis 180 30 90   XYZ
    dof rx ry rz
    limits (-90.0 60.0)
           (-90.0 90.0)
           (-90.0 90.0)
  end
  begin
     id 26 
     name rradius
     direction -1 -4.48986e-011 9.27795e-027   
     length 2.83468   
     axis 180 30 90   XYZ
    dof rx
    limits (-10.0 170.0)
  end
  begin
     id 27 
     name rwrist
     direction -1 -4.49029e-011 1.5064e-026   
     length 1.41734   
     axis -9.31234e-015 -90 -90   XYZ
    dof ry
    limits (-180.0 0.0)
  end
  begin
     id 28
     name rhand
     direction -1 -4.48857e-011 3.01165e-026   
     length 0.868195   
     axis -1.92217e-014 -90 -90   XYZ
    dof rx rz
    limits (-90.0 90.0)
           (-45.0 45.0)
  end
  begin
     id 29
     name rfingers
     direction -1 -4.49048e-011 6.02585e-026   
     length 0.699961   
     axis -3.84436e-014 -90 -90   XYZ
    dof rx
    limits (0.0 90.0)
  end
  begin
     id 30
     name rthumb
     direction -0.707107 -6.34854e-011 0.707107   
     length 1.00501   
     axis -90 -45 -2.19363e-014   XYZ
    dof rx rz
    limits (-45.0 45.0)
           (-45.0 45.0)
  end
:hierarchy
  begin
    root lhipjoint rhipjoint lowerback
    lhipjoint lfemur
    lfemur ltibia
    ltibia lfoot
    lfoot ltoes
    rhipjoint rfemur
    rfemur rtibia
    rtibia rfoot
    rfoot rtoes
    lowerback upperback
    upperback thorax
    thorax lowerneck lclavicle rclavicle
    lowerneck upperneck
    upperneck head
    lclavicle lhumerus
    lhumerus lradius
    lradius lwrist
    lwrist lhand lthumb
    lhand lfingers
    rclavicle rhumerus
    rhumerus rradius
    rradius rwrist
    rwrist rhand rthumb
    rhand rfingers
  end

#!OML:ASF H:\ManfredObstacles\Project 1\Capture day 2\Session 1\male.ASF
:FULLY-SPECIFIED
:DEGREES
1
root 1.51547 16.3726 24.9848 -169.051 -1.20813 179.306
lowerback -4.31568 5.47213 -2.07544
upperback 0.226543 7.41986 -1.92061
thorax 2.63136 3.66615 -0.341361
lowerneck -36.7143 -3.99413 -2.77808
upperneck 41.467 -9.11026 2.96974
head 26.0733 -3.78161 -1.01331
rclavicle -2.42766e-014 -1.27222e-014
rhumerus -46.9112 30.8689 -104.008
rradius 108.944
rwrist 5.76291
rhand -11.7521 1.06917
rfingers 7.12502
rthumb 14.2958 -28.4187
lclavicle -2.42766e-014 -1.27222e-014
lhumerus -68.0742 -29.1738 97.1252
lradius 109.345
lwrist -17.6595
lhand -11.0989 2.7451
lfingers 7.12502
lthumb 14.9252 32.1874
rfemur 7.03168 1.57678 24.7239
rtibia 35.9466
rfoot 32.7075 -13.2258
rtoes -10.6241
lfemur -35.4964 -5.00179 -19.413
ltibia 28.3698
lfoot 15.0158 5.25888
ltoes -5.02752
2
root 1.49806 16.2423 24.6423 -169.621 -1.45309 179.281
lowerback -3.87786 5.14228 -2.07596
upperback 0.419002 6.97194 -1.78252
thorax 2.5698 3.44476 -0.26046
lowerneck -36.7352 -3.74546 -2.5504
upperneck 41.3327 -8.64911 2.74776
head 25.8482 -3.61694 -1.02437
rclavicle -2.97432e-014 1.39149e-014
rhumerus -48.2641 30.4929 -104.438
rradius 108.451
rwrist 5.37897
rhand -12.4937 0.738757
rfingers 7.12502
rthumb 13.5812 -28.7983
lclavicle -2.97432e-014 1.39149e-014
lhumerus -67.6072 -28.9957 97.6853
lradius 109.276
lwrist -16.8692
lhand -11.1257 3.25441
lfingers 7.12502
lthumb 14.8994 32.6986
rfemur 5.88132 0.920411 24.5653
rtibia 40.3521
rfoot 30.2519 -13.6906
rtoes -11.0975
lfemur -34.2228 -4.62722 -20.1153
ltibia 30.6445
lfoot 12.2533 6.66759
ltoes -3.47967
3
root 1.47922 16.1288 24.2999 -170.236 -1.71886 179.208
lowerback -3.32964 4.83638 -2.14903
upperback 0.544597 6.5514 -1.65031
thorax 2.37148 3.23687 -0.154469
lowerneck -36.4078 -3.56562 -2.65974
upperneck 41.3302 -8.342 2.80732
head 25.7167 -3.55211 -0.863084
rclavicle 5.59082e-014 -1.98785e-015
rhumerus -49.652 29.6716 -104.688
rradius 107.967
rwrist 3.80076
rhand -12.4328 0.280285
rfingers 7.12502
rthumb 13.6399 -29.2528
lclavicle 5.59082e-014 -1.98785e-015
lhumerus -67.1066 -28.961 98.2877
lradius 108.909
lwrist -16.7053
lhand -11.4274 3.47559
lfingers 7.12502
lthumb 14.6087 32.9411
rfemur 4.88318 0.245204 24.3094
rtibia 44.2893
rfoot 28.0561 -14.302
rtoes -12.1425
lfemur -32.9915 -4.33954 -20.7152
ltibia 32.7592
lfoot 9.11425 7.934
ltoes -5.74572
4
root 1.46185 16.0551 23.946 -170.635 -1.93131 178.708
lowerback -2.85515 4.54274 -2.4762
upperback 0.560698 6.14891 -1.89223
thorax 2.1187 3.03133 -0.282543
lowerneck -36.0328 -3.42806 -2.49053
upperneck 41.1247 -8.32139 3.0233
head 25.3689 -3.50533 -0.743616
rclavicle -9.18385e-014 -2.38542e-015
rhumerus -51.1076 27.7544 -105.192
rradius 106.698
rwrist 4.65807
rhand -13.0086 -0.0335542
rfingers 7.12502
rthumb 13.0849 -29.6031
lclavicle -9.18385e-014 -2.38542e-015
lhumerus -66.3813 -29.214 98.6438
lradius 108.333
lwrist -16.8333
lhand -11.6575 3.44152
lfingers 7.12502
lthumb 14.3871 32.9229
rfemur 3.48426 -0.443709 23.4792
rtibia 48.0174
rfoot 26.4676 -14.7091
rtoes -12.4281
lfemur -32.0209 -4.96518 -21.4319
ltibia 34.6547
lfoot 7.46412 10.157
ltoes -5.30981
5
root 1.44598 15.9543 23.6021 -171.081 -2.11413 178.271
lowerback -2.39017 4.30496 -2.83303
upperback 0.639757 5.81832 -2.0639
thorax 1.92565 2.85996 -0.310899
lowerneck -35.7395 -3.30357 -2.30875
upperneck 40.9512 -8.2801 3.14922
head 25.0783 -3.4567 -0.677322
rclavicle 3.42904e-014 4.77083e-015
rhumerus -52.3837 25.9613 -105.372
rradius 105.621
rwrist 4.71872
rhand -13.3095 -0.35688
rfingers 7.12502
rthumb 12.7948 -29.9448
lclavicle 3.42904e-014 4.77083e-015
lhumerus -65.6099 -29.5713 99.0979
lradius 107.808
lwrist -16.6322
lhand -11.914 3.53591
lfingers 7.12502
lthumb 14.1399 33.0348
rfemur 2.22024 -1.07838 22.7426
rtibia 51.6725
rfoot 24.7244 -14.9737
rtoes -12.923
lfemur -30.8455 -5.24651 -22.1889
ltibia 36.3564
lfoot 5.58358 12.0472
ltoes -5.28464
